<svg width="17" height="17" viewBox="0 0 17 17" fill="none" xmlns="http://www.w3.org/2000/svg">
<path d="M14.8101 10.8293C14.7741 10.6995 14.8534 10.5192 14.9291 10.3894C14.9523 10.3508 14.9775 10.3135 15.0048 10.2776C15.6525 9.31521 15.999 8.18171 16 7.02163C16.0108 3.69712 13.2056 1 9.73681 1C6.71157 1 4.18753 3.05889 3.59618 5.79207C3.50772 6.19717 3.46299 6.61059 3.46277 7.02524C3.46277 10.3534 6.15988 13.1226 9.62863 13.1226C10.1803 13.1226 10.9231 12.9567 11.3306 12.845C11.738 12.7332 12.1419 12.5853 12.2464 12.5457C12.3536 12.5053 12.4672 12.4845 12.5818 12.4844C12.7067 12.4839 12.8306 12.5084 12.9459 12.5565L14.9904 13.2812C15.0352 13.3002 15.0826 13.3124 15.131 13.3173C15.2075 13.3173 15.2809 13.2869 15.335 13.2328C15.3891 13.1787 15.4195 13.1053 15.4195 13.0288C15.417 12.9958 15.4109 12.9632 15.4015 12.9315L14.8101 10.8293Z" stroke="black" stroke-width="1.5" stroke-miterlimit="10" stroke-linecap="round"/>
<path d="M1.66565 7.63477C1.19273 8.48437 0.963951 9.44821 1.00461 10.4197C1.04528 11.3912 1.35379 12.3326 1.89606 13.1397C1.97935 13.2655 2.02622 13.3629 2.0118 13.4282C1.99738 13.4934 1.58163 15.659 1.58163 15.659C1.57163 15.7097 1.57543 15.7622 1.59261 15.8109C1.6098 15.8596 1.63976 15.9028 1.67935 15.936C1.73218 15.9781 1.79786 16.0007 1.86541 16.0002C1.9015 16.0002 1.93722 15.9929 1.97033 15.9785L3.99714 15.1852C4.13663 15.1303 4.29225 15.1328 4.42983 15.1925C5.11276 15.4586 5.86781 15.6252 6.62322 15.6252C7.6369 15.6262 8.63278 15.3589 9.50964 14.8503" stroke="black" stroke-width="1.5" stroke-miterlimit="10" stroke-linecap="round"/>
</svg>
