<svg width="53" height="53" viewBox="0 0 53 53" fill="none" xmlns="http://www.w3.org/2000/svg">
<path fill-rule="evenodd" clip-rule="evenodd" d="M37.5417 17.6667C37.5417 23.765 32.5983 28.7083 26.5 28.7083C20.4017 28.7083 15.4583 23.765 15.4583 17.6667C15.4583 11.5684 20.4017 6.625 26.5 6.625C32.5983 6.625 37.5417 11.5684 37.5417 17.6667ZM35.3333 17.6667C35.3333 20.0094 34.4027 22.2562 32.7461 23.9128C31.0895 25.5693 28.8427 26.5 26.5 26.5C24.1573 26.5 21.9105 25.5693 20.2539 23.9128C18.5973 22.2562 17.6667 20.0094 17.6667 17.6667C17.6667 15.3239 18.5973 13.0771 20.2539 11.4206C21.9105 9.76398 24.1573 8.83333 26.5 8.83333C28.8427 8.83333 31.0895 9.76398 32.7461 11.4206C34.4027 13.0771 35.3333 15.3239 35.3333 17.6667ZM19.78 31.8607L19.7922 31.885L19.875 32.0473H32.8479C33.1007 31.5681 33.6738 30.804 34.2292 30.931C35.4769 31.2148 36.7334 31.6101 37.9403 32.097L37.9767 32.0794L37.9889 32.1036L37.9977 32.1202C42.5413 33.9664 46.375 37.0956 46.375 40.3794V46.375H6.625V40.3794C6.625 36.2111 12.8039 32.2891 18.7708 30.931C19.2578 30.8206 19.5471 31.3948 19.78 31.8607ZM36.1107 33.7687C35.6371 33.6026 35.158 33.4528 34.6741 33.3193L34.1817 34.2557H18.5423L18.0851 33.3867L17.6876 33.5059C17.6795 33.5781 17.6737 33.6605 17.67 33.7533C17.6556 34.1342 17.6843 34.5858 17.7473 35.0451C17.8114 35.5243 17.9149 35.9974 18.0564 36.4596C18.8321 36.5515 19.5503 36.9145 20.0843 37.4845C20.6182 38.0546 20.9336 38.795 20.9746 39.575C21.0157 40.3549 20.7798 41.1244 20.3086 41.7473C19.8375 42.3702 19.1613 42.8067 18.3996 42.9795C17.6379 43.1523 16.8396 43.0504 16.1458 42.6918C15.4519 42.3331 14.9071 41.7409 14.6075 41.0195C14.308 40.2982 14.2729 39.4942 14.5086 38.7495C14.7443 38.0049 15.2355 37.3675 15.8956 36.9498L15.8867 36.9189C15.7393 36.4027 15.6297 35.8765 15.5588 35.3444C15.512 35.0044 15.481 34.6625 15.4661 34.3197C14.1013 34.9027 12.8282 35.6072 11.7616 36.3845C9.63938 37.9347 8.83333 39.3834 8.83333 40.3794V44.1667H44.1667V40.3794C44.1667 39.3823 43.3606 37.9336 41.2384 36.3856C40.3129 35.7204 39.3274 35.143 38.2947 34.6609C38.2495 35.2593 38.158 35.8533 38.0209 36.4375H38.6458C38.8508 36.4376 39.0518 36.4948 39.2261 36.6026C39.4004 36.7105 39.5413 36.8647 39.633 37.0481L40.7371 39.2564C40.8144 39.4099 40.8542 39.5789 40.8542 39.75V41.9583C40.8542 42.2512 40.7378 42.532 40.5308 42.7391C40.3237 42.9462 40.0428 43.0625 39.75 43.0625H37.5417V40.8542H38.6458V40.0106L37.9635 38.6458H34.9115L34.2292 40.0106V40.8542H35.3333V43.0625H33.125C32.8322 43.0625 32.5513 42.9462 32.3442 42.7391C32.1372 42.532 32.0208 42.2512 32.0208 41.9583V39.75C32.0208 39.5789 32.0606 39.4099 32.1379 39.2564L33.242 37.0481C33.3337 36.8647 33.4746 36.7105 33.6489 36.6026C33.8232 36.4948 34.0242 36.4376 34.2292 36.4375H35.733L35.7739 36.3006C35.8777 35.9461 35.9704 35.5056 36.0334 35.0462C36.0952 34.5913 36.1239 34.1464 36.1107 33.7687ZM18.7708 39.75C18.7708 40.3838 18.2607 40.8707 17.6667 40.8707C17.0726 40.8707 16.5625 40.3849 16.5625 39.75C16.5625 39.1162 17.0726 38.6293 17.6667 38.6293C18.2607 38.6293 18.7708 39.1151 18.7708 39.75Z" fill="black"/>
</svg>
