<svg width="54" height="54" viewBox="0 0 54 54" fill="none" xmlns="http://www.w3.org/2000/svg">
<path d="M45.4082 28.4446C46.2399 26.516 46.7333 24.4474 46.7333 22.2535C46.7333 14.0001 42.2107 9.55566 36.6317 9.55566C33.9527 9.55566 31.3833 10.6593 29.4889 12.6239L28.3329 13.8227C27.459 14.729 26.0075 14.729 25.1336 13.8227L23.9777 12.6239C22.0833 10.6593 19.5139 9.55566 16.8348 9.55566C11.1777 9.55566 6.73328 14.0001 6.73328 22.2535C6.73328 24.4474 7.22661 26.516 8.05832 28.4446M45.4082 28.4446C40.9443 38.7952 26.7333 45.1112 26.7333 45.1112C26.7333 45.1112 12.5222 38.7952 8.05832 28.4446M45.4082 28.4446L36.3442 28.4446C35.9051 28.4446 35.5072 28.186 35.3289 27.7847L32.174 20.6862C31.786 19.8132 30.5501 19.8044 30.1498 20.6718L25.4798 30.79C25.0894 31.6359 23.8938 31.6546 23.4772 30.8213L21.0604 25.9878C20.6509 25.1688 19.4823 25.1688 19.0728 25.9878L18.1515 27.8304C17.9633 28.2068 17.5785 28.4446 17.1577 28.4446L8.05832 28.4446" stroke="black" stroke-width="1.5" stroke-linecap="round" stroke-linejoin="round"/>
</svg>
