<svg width="56" height="55" viewBox="0 0 56 55" fill="none" xmlns="http://www.w3.org/2000/svg">
<path d="M27.6652 4.77153L26.3107 6.19017C26.6797 6.51707 27.1627 6.69848 27.6639 6.69848C28.1652 6.69848 28.6481 6.51707 29.0172 6.19017L27.6652 4.77153ZM23.9108 17.8528C22.0709 16.5601 20.1057 14.9873 18.6231 13.3296C17.0925 11.6206 16.3325 10.1069 16.3325 8.90666H12.3328C12.3328 11.5204 13.874 13.9284 15.5939 15.8482C17.3618 17.822 19.5964 19.5927 21.5536 20.9677L23.9108 17.8528ZM16.3325 8.90666C16.3325 6.18503 17.7191 4.63275 19.3884 4.09305C21.1269 3.52765 23.7188 3.89259 26.3107 6.19017L29.0172 3.35289C25.612 0.335715 21.5429 -0.671725 18.1138 0.438515C14.6126 1.57445 12.3328 4.74584 12.3328 8.90666H16.3325ZM33.7769 20.9677C35.7341 19.5953 37.9687 17.822 39.7366 15.8482C41.4565 13.9284 42.9977 11.5204 42.9977 8.90666H38.998C38.998 10.1069 38.2407 11.6206 36.7074 13.3296C35.2248 14.9873 33.2623 16.5601 31.4224 17.8528L33.7769 20.9677ZM42.9977 8.90666C42.9977 4.74584 40.7179 1.57445 37.2194 0.438515C33.7902 -0.671725 29.7185 0.335715 26.3133 3.35289L29.0198 6.19017C31.6117 3.89259 34.2062 3.52765 35.9448 4.09305C37.6114 4.63275 38.998 6.18503 38.998 8.90666H42.9977ZM21.5536 20.9677C23.5668 22.3812 25.1641 23.5839 27.6652 23.5839V19.7289C26.692 19.7289 26.1587 19.4334 23.9108 17.8528L21.5536 20.9677ZM31.4197 17.8528C29.1718 19.4334 28.6385 19.7289 27.6652 19.7289V23.5839C30.1664 23.5839 31.7637 22.3837 33.7769 20.9677L31.4197 17.8528Z" fill="black"/>
<path d="M8.99951 49.1853H15.0258C17.719 49.1853 20.4469 49.4577 23.0681 49.9768C27.7481 50.9006 32.5627 51.0033 37.2806 50.2801C39.5952 49.9203 41.867 49.3677 43.9256 48.4117C45.7815 47.5456 48.056 46.33 49.5839 44.9653C51.1092 43.6032 52.6984 41.375 53.8237 39.6326C54.7943 38.1368 54.325 36.3044 52.7944 35.1916C51.9339 34.5898 50.8978 34.2657 49.8346 34.2657C48.7713 34.2657 47.7353 34.5898 46.8748 35.1916L42.0564 38.6997C40.1898 40.0618 38.1499 41.3134 35.7207 41.686C35.4274 41.7306 35.1207 41.7708 34.8008 41.8068M34.8008 41.8068L34.5074 41.8376M34.8008 41.8068C35.2275 41.6954 35.6187 41.4834 35.9394 41.19C36.3418 40.8554 36.6705 40.4463 36.906 39.987C37.1415 39.5278 37.2789 39.0277 37.3103 38.5163C37.3416 38.0049 37.2661 37.4926 37.0884 37.0098C36.9106 36.5271 36.6341 36.0836 36.2753 35.7056C35.9279 35.3338 35.5232 35.0157 35.0754 34.7624C27.6172 30.4731 16.0098 33.7396 8.99951 38.5326M34.8008 41.8068C34.7045 41.8275 34.6061 41.8378 34.5074 41.8376M34.5074 41.8376C32.8993 41.993 31.2792 41.9964 29.6704 41.8479" stroke="black" stroke-width="1.5" stroke-linecap="round"/>
<path d="M8.99956 36.6245C8.99956 34.4955 7.2088 32.7695 4.99978 32.7695C2.79076 32.7695 1 34.4955 1 36.6245V49.4745C1 51.6036 2.79076 53.3295 4.99978 53.3295C7.2088 53.3295 8.99956 51.6036 8.99956 49.4745V36.6245Z" stroke="black" stroke-width="1.5"/>
</svg>
