<svg width="65" height="80" viewBox="0 0 65 80" fill="none" xmlns="http://www.w3.org/2000/svg">
<path d="M41.3277 22.7351C44.4374 23.8682 47.153 25.0437 49.6343 26.6979C53.1022 29.0098 56.0425 31.8557 58.3838 35.3073C58.7485 35.8446 59.0806 36.4079 59.3574 36.9941C60.2854 38.9706 59.7286 39.8465 57.6055 39.5958C52.4216 38.9869 47.6122 37.629 44.3853 32.9987C43.3107 31.4585 41.6924 30.5012 39.8591 29.9899C35.3818 28.733 30.9436 28.8014 26.6681 30.7161C22.7509 32.4712 21.9303 35.5646 24.2162 39.2083C25.1019 40.6182 26.3132 41.6765 27.6515 42.6208C29.2699 43.7638 30.6147 45.1639 31.5069 46.9483C32.6042 49.1495 32.3177 50.7288 30.517 52.6793C28.5665 54.7926 26.6323 55.382 24.4441 54.5256C22.4481 53.7441 21.0511 52.3732 18.6741 48.8174C16.385 51.8099 15.991 55.1508 16.538 58.6642C17.0851 62.1712 18.5341 65.4014 19.7877 68.6902C20.5595 70.7123 21.341 72.7344 21.7708 74.8705C21.9466 75.7334 21.9922 76.5963 21.875 77.4559C21.7284 78.5337 21.0414 79.1036 19.9733 79.0384C19.283 78.9961 18.5569 78.8659 17.9252 78.5956C12.9725 76.4856 8.57329 73.568 5.08913 69.413C1.89803 65.6098 0.510877 61.0413 0.149436 56.2253C-0.619033 45.9194 1.5431 36.2647 7.40756 27.6389C10.5987 22.9467 14.7894 19.583 20.6669 18.8569C21.0674 18.808 21.6047 18.8504 21.2726 18.1145C20.2762 15.9002 20.706 13.6469 21.1944 11.4132C22.015 7.67176 23.5259 4.22016 25.6034 0.999752C26.3718 -0.18877 27.1175 -0.305994 28.2116 0.586212C29.4001 1.55331 29.9048 3.54286 31.2334 3.80011C32.4772 4.04107 33.9946 3.09676 35.4762 3.11304C37.2281 3.13258 38.9441 3.39633 40.5429 4.11596C41.3114 4.46112 41.6956 4.30808 42.1059 3.62753C42.7799 2.51715 43.6005 1.00301 44.8932 1.24397C46.1794 1.48493 46.3748 3.22375 46.7135 4.47089C47.6024 7.74339 48.0257 11.0875 47.5373 14.4512C47.0033 18.1568 45.1081 21.0158 41.3146 22.7318L41.3277 22.7351ZM44.3983 10.6903C44.2648 9.6548 43.6852 8.90912 42.5292 8.95471C41.484 8.99378 40.8262 9.66457 40.8132 10.7424C40.7969 11.9309 41.5393 12.5659 42.6529 12.5431C43.6949 12.5203 44.3201 11.8658 44.395 10.6903H44.3983ZM35.3134 10.4005C35.1669 9.28359 34.5352 8.57048 33.3955 8.63886C32.3698 8.70072 31.6925 9.37476 31.7088 10.4623C31.7251 11.6509 32.487 12.2663 33.6006 12.2272C34.6557 12.1881 35.2385 11.4946 35.3167 10.4005H35.3134ZM38.9669 15.3858C39.7744 15.3304 40.5722 15.0862 40.5722 14.1777C40.5722 13.2594 39.7354 12.9729 38.9604 12.9892C38.257 13.0022 37.4755 13.2529 37.4462 14.1093C37.4137 15.0439 38.1691 15.3043 38.9702 15.389L38.9669 15.3858Z" fill="white"/>
<path d="M61.7121 41.5947C62.8811 44.2681 63.5291 46.8861 63.7668 49.5725C64.2715 55.2904 64.2845 61.0344 61.4484 66.2313C58.2638 72.0697 53.0115 75.6255 46.9224 77.843C42.686 79.3865 39.801 77.5207 39.0586 73.0271C38.1045 67.2473 39.6382 62.1936 43.881 58.0484C45.2324 56.7264 46.8312 56.098 48.7361 56.2022C50.6475 56.3096 52.5198 56.0882 54.3205 55.3783C56.4598 54.535 57.9675 53.1413 58.6024 50.8522C59.309 48.2993 60.1068 45.7725 60.8655 43.2326C61.0185 42.7279 61.0967 42.1841 61.7089 41.5947H61.7121Z" fill="white"/>
<path d="M40.6866 36.483C41.7807 36.509 42.7185 37.5608 42.6762 38.8209C42.6306 40.0941 41.9761 40.8235 40.6378 40.8268C39.2897 40.8268 38.3845 39.8987 38.4464 38.5735C38.505 37.3719 39.4851 36.4569 40.6866 36.483Z" fill="white"/>
</svg>
