<svg width="19" height="18" viewBox="0 0 19 18" fill="none" xmlns="http://www.w3.org/2000/svg">
<path d="M9.87502 17.25C10.2728 17.25 10.6544 17.092 10.9357 16.8107C11.217 16.5294 11.375 16.1478 11.375 15.75H8.37502C8.37502 16.1478 8.53306 16.5294 8.81436 16.8107C9.09567 17.092 9.4772 17.25 9.87502 17.25ZM3.87502 14.25H15.875C16.0233 14.25 16.1683 14.206 16.2916 14.1236C16.4149 14.0411 16.511 13.924 16.5678 13.787C16.6245 13.65 16.6394 13.4992 16.6105 13.3537C16.5815 13.2083 16.5101 13.0746 16.4053 12.9697L15.125 11.6895V7.5C15.1226 6.23887 14.6667 5.02068 13.8405 4.06784C13.0144 3.115 11.8731 2.49108 10.625 2.31V1.5C10.625 1.30109 10.546 1.11032 10.4054 0.96967C10.2647 0.829018 10.0739 0.75 9.87502 0.75C9.67611 0.75 9.48535 0.829018 9.34469 0.96967C9.20404 1.11032 9.12502 1.30109 9.12502 1.5V2.31C7.87696 2.49108 6.73566 3.115 5.9095 4.06784C5.08334 5.02068 4.62744 6.23887 4.62502 7.5V11.6895L3.34477 12.9697C3.23992 13.0746 3.16851 13.2083 3.13959 13.3537C3.11066 13.4992 3.12551 13.65 3.18226 13.787C3.23902 13.924 3.33512 14.0411 3.45843 14.1236C3.58174 14.206 3.72671 14.25 3.87502 14.25ZM5.90527 12.5303C6.04594 12.3896 6.12498 12.1989 6.12502 12V7.5C6.12502 6.50544 6.52011 5.55161 7.22337 4.84835C7.92663 4.14509 8.88046 3.75 9.87502 3.75C10.8696 3.75 11.8234 4.14509 12.5267 4.84835C13.2299 5.55161 13.625 6.50544 13.625 7.5V12C13.6251 12.1989 13.7041 12.3896 13.8448 12.5303L14.0645 12.75H5.68552L5.90527 12.5303Z" fill="black"/>
</svg>
