<svg width="25" height="24" viewBox="0 0 25 24" fill="none" xmlns="http://www.w3.org/2000/svg">
<mask id="mask0_632_892" style="mask-type:alpha" maskUnits="userSpaceOnUse" x="0" y="0" width="25" height="24">
<rect x="0.0337524" width="24" height="24" fill="#D9D9D9"/>
</mask>
<g mask="url(#mask0_632_892)">
<path d="M12.0338 12C10.9338 12 9.99215 11.6083 9.20881 10.825C8.42548 10.0417 8.03381 9.1 8.03381 8C8.03381 6.9 8.42548 5.95833 9.20881 5.175C9.99215 4.39167 10.9338 4 12.0338 4C13.1338 4 14.0755 4.39167 14.8588 5.175C15.6421 5.95833 16.0338 6.9 16.0338 8C16.0338 9.1 15.6421 10.0417 14.8588 10.825C14.0755 11.6083 13.1338 12 12.0338 12ZM4.03381 20V17.2C4.03381 16.6333 4.17965 16.1125 4.47131 15.6375C4.76298 15.1625 5.15048 14.8 5.63381 14.55C6.66715 14.0333 7.71715 13.6458 8.78381 13.3875C9.85048 13.1292 10.9338 13 12.0338 13C13.1338 13 14.2171 13.1292 15.2838 13.3875C16.3505 13.6458 17.4005 14.0333 18.4338 14.55C18.9171 14.8 19.3046 15.1625 19.5963 15.6375C19.888 16.1125 20.0338 16.6333 20.0338 17.2V20H4.03381ZM6.03381 18H18.0338V17.2C18.0338 17.0167 17.988 16.85 17.8963 16.7C17.8046 16.55 17.6838 16.4333 17.5338 16.35C16.6338 15.9 15.7255 15.5625 14.8088 15.3375C13.8921 15.1125 12.9671 15 12.0338 15C11.1005 15 10.1755 15.1125 9.25881 15.3375C8.34215 15.5625 7.43381 15.9 6.53381 16.35C6.38381 16.4333 6.26298 16.55 6.17131 16.7C6.07965 16.85 6.03381 17.0167 6.03381 17.2V18ZM12.0338 10C12.5838 10 13.0546 9.80417 13.4463 9.4125C13.838 9.02083 14.0338 8.55 14.0338 8C14.0338 7.45 13.838 6.97917 13.4463 6.5875C13.0546 6.19583 12.5838 6 12.0338 6C11.4838 6 11.013 6.19583 10.6213 6.5875C10.2296 6.97917 10.0338 7.45 10.0338 8C10.0338 8.55 10.2296 9.02083 10.6213 9.4125C11.013 9.80417 11.4838 10 12.0338 10Z" fill="#1C1B1F"/>
</g>
</svg>
