<svg width="25" height="24" viewBox="0 0 25 24" fill="none" xmlns="http://www.w3.org/2000/svg">
<mask id="mask0_638_903" style="mask-type:alpha" maskUnits="userSpaceOnUse" x="0" y="0" width="25" height="24">
<rect x="1.33337" y="0.75" width="22.5" height="22.5" fill="#D9D9D9" stroke="black" stroke-width="1.5"/>
</mask>
<g mask="url(#mask0_638_903)">
<path d="M10.2889 12.1286L10.2974 12.1192L10.3057 12.1095C10.6183 11.74 10.9782 11.4369 11.3874 11.197C11.7543 10.9819 12.1482 10.875 12.5831 10.875C13.0266 10.875 13.4265 10.9779 13.7958 11.1817C14.1969 11.403 14.5512 11.6938 14.8606 12.0595L14.8605 12.0595L14.8687 12.0689C15.3035 12.5657 15.6879 13.1015 16.0222 13.6768C16.4071 14.3393 16.8591 14.9568 17.3774 15.5286L17.3774 15.5287L17.3815 15.5331C17.9638 16.1653 18.5503 16.8059 19.141 17.4549C19.6089 17.9689 19.8331 18.548 19.8331 19.225C19.8331 19.8295 19.6431 20.3309 19.2587 20.7657C18.889 21.184 18.4625 21.375 17.9331 21.375C17.075 21.375 16.2254 21.3035 15.3837 21.1606C14.4587 21.0035 13.525 20.925 12.5831 20.925C11.6412 20.925 10.7076 21.0035 9.78257 21.1606C8.94091 21.3035 8.09124 21.375 7.23313 21.375C6.70373 21.375 6.2773 21.184 5.90753 20.7657C5.52313 20.3309 5.33313 19.8295 5.33313 19.225C5.33313 18.548 5.55733 17.9689 6.02526 17.4549C6.61532 16.8066 7.2012 16.1667 7.78289 15.5352C8.30436 14.9774 8.75477 14.3693 9.13321 13.7115C9.45581 13.1508 9.84061 12.6233 10.2889 12.1286ZM5.08313 11.375C4.57668 11.375 4.17739 11.2086 3.83846 10.8697C3.49953 10.5307 3.33313 10.1315 3.33313 9.625C3.33313 9.11855 3.49953 8.71926 3.83846 8.38033C4.17739 8.0414 4.57668 7.875 5.08313 7.875C5.58959 7.875 5.98887 8.0414 6.3278 8.38033C6.66673 8.71926 6.83313 9.11855 6.83313 9.625C6.83313 10.1315 6.66673 10.5307 6.3278 10.8697C5.98887 11.2086 5.58959 11.375 5.08313 11.375ZM9.58313 7.375C9.07668 7.375 8.67739 7.2086 8.33846 6.86967C7.99953 6.53074 7.83313 6.13145 7.83313 5.625C7.83313 5.11855 7.99953 4.71926 8.33846 4.38033C8.67739 4.0414 9.07668 3.875 9.58313 3.875C10.0896 3.875 10.4889 4.0414 10.8278 4.38033C11.1667 4.71926 11.3331 5.11854 11.3331 5.625C11.3331 6.13145 11.1667 6.53074 10.8278 6.86967C10.4889 7.2086 10.0896 7.375 9.58313 7.375ZM15.5831 7.375C15.0767 7.375 14.6774 7.2086 14.3385 6.86967C13.9995 6.53074 13.8331 6.13145 13.8331 5.625C13.8331 5.11855 13.9995 4.71926 14.3385 4.38033C14.6774 4.0414 15.0767 3.875 15.5831 3.875C16.0896 3.875 16.4889 4.0414 16.8278 4.38033C17.1667 4.71926 17.3331 5.11854 17.3331 5.625C17.3331 6.13145 17.1667 6.53074 16.8278 6.86967C16.4889 7.2086 16.0896 7.375 15.5831 7.375ZM20.0831 11.375C19.5767 11.375 19.1774 11.2086 18.8385 10.8697C18.4995 10.5307 18.3331 10.1315 18.3331 9.625C18.3331 9.11855 18.4995 8.71926 18.8385 8.38033C19.1774 8.0414 19.5767 7.875 20.0831 7.875C20.5896 7.875 20.9889 8.0414 21.3278 8.38033C21.6667 8.71926 21.8331 9.11855 21.8331 9.625C21.8331 10.1315 21.6667 10.5307 21.3278 10.8697C20.9889 11.2086 20.5896 11.375 20.0831 11.375Z" stroke="black" stroke-width="1.5"/>
</g>
</svg>
