<svg width="56" height="55" viewBox="0 0 56 55" fill="none" xmlns="http://www.w3.org/2000/svg">
<mask id="mask0_638_614" style="mask-type:alpha" maskUnits="userSpaceOnUse" x="0" y="0" width="56" height="55">
<rect x="0.5" width="55" height="55" fill="#D9D9D9"/>
</mask>
<g mask="url(#mask0_638_614)">
<path d="M27.9999 40.1038C30.5971 40.1038 32.9556 39.3686 35.0754 37.8981C37.1952 36.4276 38.7326 34.4893 39.6874 32.083H16.3124C17.2673 34.4893 18.8046 36.4276 20.9244 37.8981C23.0442 39.3686 25.4027 40.1038 27.9999 40.1038ZM18.3749 25.208L20.8958 22.8018L23.302 25.208L25.7083 22.8018L20.8958 17.8747L15.9687 22.8018L18.3749 25.208ZM32.6978 25.208L35.1041 22.8018L37.6249 25.208L40.0312 22.8018L35.1041 17.8747L30.2916 22.8018L32.6978 25.208ZM27.9999 50.4163C24.8298 50.4163 21.8506 49.8148 19.0624 48.6116C16.2742 47.4085 13.8489 45.7757 11.7864 43.7132C9.72388 41.6507 8.09106 39.2254 6.88794 36.4372C5.68481 33.649 5.08325 30.6698 5.08325 27.4997C5.08325 24.3295 5.68481 21.3504 6.88794 18.5622C8.09106 15.774 9.72388 13.3486 11.7864 11.2861C13.8489 9.22363 16.2742 7.59082 19.0624 6.3877C21.8506 5.18457 24.8298 4.58301 27.9999 4.58301C31.1701 4.58301 34.1492 5.18457 36.9374 6.3877C39.7256 7.59082 42.151 9.22363 44.2135 11.2861C46.276 13.3486 47.9088 15.774 49.1119 18.5622C50.315 21.3504 50.9166 24.3295 50.9166 27.4997C50.9166 30.6698 50.315 33.649 49.1119 36.4372C47.9088 39.2254 46.276 41.6507 44.2135 43.7132C42.151 45.7757 39.7256 47.4085 36.9374 48.6116C34.1492 49.8148 31.1701 50.4163 27.9999 50.4163Z" fill="#16A99F"/>
</g>
</svg>
